<?xml version="1.0" encoding="UTF-8"?>
<svg version="1.1" xmlns="http://www.w3.org/2000/svg" width="495" height="267">
<path d="M0 0 C1.00699951 0.00829834 2.01399902 0.01659668 3.05151367 0.02514648 C15.96322365 0.31857071 26.43802466 4.07646982 35.5625 13.50390625 C41.06803677 20.13665422 45.11926362 27.90091032 46.5625 36.4375 C46.8925 36.4375 47.2225 36.4375 47.5625 36.4375 C47.66046875 35.85742188 47.7584375 35.27734375 47.859375 34.6796875 C49.10097138 28.19341676 51.04425732 23.82320359 55.9375 19.1875 C61.068757 15.766662 65.12933252 15.20608495 71.12109375 15.7578125 C74.65126416 16.74061194 77.4298161 18.54190269 80.5625 20.4375 C80.52697021 19.86717041 80.49144043 19.29684082 80.45483398 18.70922852 C80.29779923 16.13978336 80.14879537 13.56993488 80 11 C79.94392578 10.10216797 79.88785156 9.20433594 79.83007812 8.27929688 C79.78173828 7.42529297 79.73339844 6.57128906 79.68359375 5.69140625 C79.6364624 4.90064697 79.58933105 4.1098877 79.54077148 3.29516602 C79.5625 1.4375 79.5625 1.4375 80.5625 0.4375 C82.18507544 0.3383343 83.81189831 0.30670223 85.4375 0.3046875 C86.42234375 0.30339844 87.4071875 0.30210938 88.421875 0.30078125 C89.45828125 0.30464844 90.4946875 0.30851562 91.5625 0.3125 C93.11710937 0.30669922 93.11710937 0.30669922 94.703125 0.30078125 C95.68796875 0.30207031 96.6728125 0.30335937 97.6875 0.3046875 C98.59757813 0.30581543 99.50765625 0.30694336 100.4453125 0.30810547 C102.5625 0.4375 102.5625 0.4375 103.5625 1.4375 C103.6600858 2.82660633 103.68881639 4.22062949 103.68948364 5.61315918 C103.69230347 6.51340317 103.69512329 7.41364716 103.69802856 8.34117126 C103.69499222 9.83421532 103.69499222 9.83421532 103.69189453 11.35742188 C103.69452301 12.92067955 103.69452301 12.92067955 103.69720459 14.51551819 C103.70162538 17.97911213 103.69868431 21.44265549 103.6953125 24.90625 C103.69598547 27.3013917 103.69695544 29.69653334 103.69821167 32.0916748 C103.69968895 37.11890308 103.69753311 42.14611362 103.69287109 47.17333984 C103.6871738 53.63356691 103.69045264 60.09375243 103.69644356 66.55397797 C103.70004835 71.50201737 103.69891096 76.45004685 103.69631577 81.39808655 C103.69564627 83.78084823 103.6964757 86.16361081 103.69879532 88.54637146 C103.70132051 91.87013149 103.69748313 95.19382321 103.69189453 98.51757812 C103.69391876 99.51294083 103.69594299 100.50830353 103.69802856 101.53382874 C103.69520874 102.43407272 103.69238892 103.33431671 103.68948364 104.26184082 C103.6889181 105.44209209 103.6889181 105.44209209 103.68834114 106.64618683 C103.5625 108.4375 103.5625 108.4375 102.5625 109.4375 C100.92777118 109.52450342 99.28935945 109.54451063 97.65234375 109.53515625 C96.66298828 109.53193359 95.67363281 109.52871094 94.65429688 109.52539062 C93.61337891 109.51701172 92.57246094 109.50863281 91.5 109.5 C90.45521484 109.49548828 89.41042969 109.49097656 88.33398438 109.48632812 C85.7434334 109.47449913 83.15299441 109.45801689 80.5625 109.4375 C79.9025 108.1175 79.2425 106.7975 78.5625 105.4375 C77.7375 106.241875 76.9125 107.04625 76.0625 107.875 C72.52442064 110.78335095 69.11900443 111.71089027 64.5625 111.4375 C59.32948622 110.51865979 54.75236538 108.91217221 51.5546875 104.40234375 C46.91725831 95.21877335 46.9329495 84.5035072 46.5625 74.4375 C46.3665625 75.07816406 46.170625 75.71882813 45.96875 76.37890625 C43.61404727 83.18927492 40.57551692 87.40001225 34.5625 91.4375 C30.98937005 92.62854332 28.01696678 92.64278823 24.25 92.6875 C22.95449219 92.71328125 21.65898437 92.7390625 20.32421875 92.765625 C15.61447546 92.35480627 12.32267857 91.11990323 8.8828125 87.83203125 C7.77604167 86.3671875 6.66927083 84.90234375 5.5625 83.4375 C5.005625 84.18 4.44875 84.9225 3.875 85.6875 C0.32807489 89.905465 -1.69245663 92.21233311 -7.3125 92.9375 C-11.74393266 92.68666419 -15.01694272 91.23851757 -18.4375 88.4375 C-26.36921865 78.96350272 -27.09833623 66.2484457 -26.4375 54.4375 C-25.38770952 46.51034195 -24.03065222 38.4914517 -18.4375 32.4375 C-13.75652378 29.1088058 -9.99192358 28.90850728 -4.4375 29.4375 C-1.18469316 30.95547652 1.16140215 32.78365501 3.5625 35.4375 C4.5525 33.4575 5.5425 31.4775 6.5625 29.4375 C8.70826637 29.41064062 10.85412645 29.39116912 13 29.375 C14.19496094 29.36339844 15.38992187 29.35179688 16.62109375 29.33984375 C19.5625 29.4375 19.5625 29.4375 20.5625 30.4375 C20.69824309 33.49162412 20.77319117 36.52625753 20.80859375 39.58203125 C20.84153818 41.4746139 20.87474973 43.36719191 20.90820312 45.25976562 C20.95560246 48.2552565 21.00000957 51.25072937 21.03930664 54.24633789 C21.07903354 57.12927355 21.13058558 60.01181351 21.18359375 62.89453125 C21.1920079 63.78944778 21.20042206 64.68436432 21.20909119 65.60639954 C21.22573318 66.4437413 21.24237518 67.28108307 21.25952148 68.14379883 C21.27498268 69.24513908 21.27498268 69.24513908 21.29075623 70.36872864 C21.60076779 72.72883072 22.39568146 74.37798679 23.5625 76.4375 C25.2125 76.4375 26.8625 76.4375 28.5625 76.4375 C34.27990703 66.90848828 32.55539117 49.32160867 30.25390625 38.828125 C28.18175634 31.66340328 25.19920789 24.07256896 18.41796875 20.21875 C8.26298909 15.50333656 -2.16387681 15.11292363 -12.8671875 18.40625 C-20.61211905 21.51363895 -25.74360611 27.0387511 -29.4375 34.4375 C-35.9500412 51.97766688 -37.1394397 70.10326104 -29.4375 87.4375 C-25.1365622 95.13222991 -19.49626592 99.18807012 -11.34375 102.21484375 C-2.40144215 104.62359921 7.43964154 103.10943106 16.5625 102.4375 C16.89724667 103.86234337 17.22700664 105.28835884 17.5546875 106.71484375 C17.83094971 107.90581665 17.83094971 107.90581665 18.11279297 109.12084961 C18.657382 111.9262814 18.708617 114.58821841 18.5625 117.4375 C12.22967725 119.10092525 6.29105758 119.79374229 -0.25 119.75 C-1.1251123 119.74508545 -2.00022461 119.7401709 -2.90185547 119.73510742 C-16.89626398 119.48285103 -28.55102094 115.33631829 -39.0390625 105.98828125 C-40.4375 104.4375 -40.4375 104.4375 -40.4375 102.4375 C-41.0975 102.4375 -41.7575 102.4375 -42.4375 102.4375 C-53.18189523 82.55654065 -57.43327011 61.14658788 -51.60546875 38.73828125 C-46.43641495 24.13008573 -39.48642208 12.90471261 -25.85546875 4.9453125 C-17.37093522 1.20242114 -9.22848362 -0.09862976 0 0 Z M73.5625 33.4375 C70.85952953 36.52006127 70.18531754 38.4303399 70.17431641 42.50976562 C70.16485992 43.51761108 70.15540344 44.52545654 70.1456604 45.56384277 C70.15173309 46.64621216 70.15780579 47.72858154 70.1640625 48.84375 C70.16119232 49.96060181 70.15832214 51.07745361 70.15536499 52.22814941 C70.15332434 54.58846545 70.15885424 56.94879839 70.17138672 59.30908203 C70.18743955 62.92388693 70.17153722 66.53757366 70.15234375 70.15234375 C70.15432618 72.44531497 70.15816985 74.73828549 70.1640625 77.03125 C70.15798981 78.11361938 70.15191711 79.19598877 70.1456604 80.31115723 C70.15511688 81.31900269 70.16457336 82.32684814 70.17431641 83.36523438 C70.17670319 84.25029663 70.17908997 85.13535889 70.18154907 86.04724121 C70.63535008 88.8945944 71.68245784 90.29343471 73.5625 92.4375 C76.85325996 92.05845792 76.85325996 92.05845792 79.5625 90.4375 C80.6186582 84.80263207 80.72328004 79.27960681 80.73046875 73.55859375 C80.73379715 72.62829849 80.73712555 71.69800323 80.74055481 70.73951721 C80.74559518 68.78216035 80.74796403 66.82479498 80.74780273 64.86743164 C80.74999568 61.88087853 80.76819978 58.89469135 80.78710938 55.90820312 C80.79004265 54.00000125 80.79202789 52.09179764 80.79296875 50.18359375 C80.80374702 48.85212563 80.80374702 48.85212563 80.81474304 47.49375916 C80.79727436 42.73658827 80.40567785 38.90870155 78.5625 34.4375 C76.9125 34.1075 75.2625 33.7775 73.5625 33.4375 Z M47.5625 41.4375 C48.5625 44.4375 48.5625 44.4375 48.5625 44.4375 Z M-3.625 46.1875 C-7.09448764 50.49445017 -6.650596 55.41275844 -6.6875 60.75 C-6.708125 61.48412109 -6.72875 62.21824219 -6.75 62.97460938 C-6.78712176 68.20413689 -5.78484414 71.76134339 -3.4375 76.4375 C-1.49675139 76.16132467 -1.49675139 76.16132467 0.5625 75.4375 C2.95362209 71.85081687 2.79631027 70.27353431 2.7578125 66.01953125 C2.75136719 64.76591797 2.74492187 63.51230469 2.73828125 62.22070312 C2.72152344 60.91037109 2.70476562 59.60003906 2.6875 58.25 C2.67746639 56.91472013 2.6683412 55.57943311 2.66015625 54.24414062 C2.63655292 50.97507985 2.60362594 47.70637972 2.5625 44.4375 C-1.38381527 44.02103663 -1.38381527 44.02103663 -3.625 46.1875 Z M79.5625 101.4375 C80.5625 104.4375 80.5625 104.4375 80.5625 104.4375 Z " fill="#F76B3E" transform="translate(222.4375,73.5625)"/>
<path d="M0 0 C7.26 0 14.52 0 22 0 C22.33 13.86 22.66 27.72 23 42 C25.59104964 34.14768641 25.59104964 34.14768641 28.17553711 26.29321289 C28.6590564 24.83516235 28.6590564 24.83516235 29.15234375 23.34765625 C29.48226318 22.34742432 29.81218262 21.34719238 30.15209961 20.31665039 C31 18 31 18 32 17 C39.72034883 16.12379395 47.32613578 15.59051474 55 17 C54.38069318 21.64391517 53.13010681 25.67874535 51.4609375 30.05078125 C50.95751949 31.40269202 50.45494136 32.75491578 49.953125 34.10742188 C49.16710534 36.2104165 48.3756866 38.31071589 47.56933594 40.40600586 C46.7865658 42.44817152 46.02849597 44.49823474 45.2734375 46.55078125 C44.81372559 47.76419189 44.35401367 48.97760254 43.88037109 50.2277832 C41.96137693 58.45029534 44.62629115 65.67961842 47.37890625 73.43359375 C47.71043198 74.39274185 48.0419577 75.35188995 48.38352966 76.34010315 C49.4343691 79.37571884 50.4977662 82.40673295 51.5625 85.4375 C52.62855969 88.49398607 53.69194888 91.55136652 54.75218201 94.60987854 C55.41045517 96.50652629 56.07250398 98.40186862 56.73866272 100.29576111 C57.03574631 101.14747391 57.3328299 101.99918671 57.63891602 102.87670898 C57.9023732 103.62677719 58.16583038 104.3768454 58.43727112 105.14964294 C59 107 59 107 59 109 C51.08 109 43.16 109 35 109 C33.10222378 103.9392634 31.3228724 99.01917997 29.73828125 93.875 C29.38032471 92.71742188 29.02236816 91.55984375 28.65356445 90.3671875 C28.21101318 88.92601562 27.76846191 87.48484375 27.3125 86 C25.889375 81.38 24.46625 76.76 23 72 C22.67 84.21 22.34 96.42 22 109 C14.74 109 7.48 109 0 109 C0 73.03 0 37.06 0 0 Z " fill="#F76C3F" transform="translate(115,74)"/>
<path d="M0 0 C4.43852356 3.57921344 7.22998784 7.59129496 9 13 C9.16464931 15.60836374 9.23392915 18.10319498 9.1953125 20.70703125 C9.1924826 21.43242599 9.18965271 22.15782074 9.18673706 22.90519714 C9.17559799 25.20780368 9.15050566 27.51001227 9.125 29.8125 C9.11496206 31.37955165 9.10583763 32.94660943 9.09765625 34.51367188 C9.077386 38.34272225 9.0382271 42.17091896 9 46 C-1.23 46 -11.46 46 -22 46 C-22.04125 48.990625 -22.0825 51.98125 -22.125 55.0625 C-22.15231201 56.45480835 -22.15231201 56.45480835 -22.18017578 57.87524414 C-22.21404477 62.98782201 -21.66750088 67.16162147 -20 72 C-18.33388095 72.042721 -16.66617115 72.04063832 -15 72 C-12.88074396 69.88074396 -13.58168983 65.3803907 -13.4375 62.4375 C-13.39431641 61.63119141 -13.35113281 60.82488281 -13.30664062 59.99414062 C-13.20024738 57.99631195 -13.09959112 55.9981793 -13 54 C-9.35418313 53.97112488 -5.70839537 53.95324415 -2.0625 53.9375 C-0.50112305 53.92493164 -0.50112305 53.92493164 1.09179688 53.91210938 C2.08115234 53.90888672 3.07050781 53.90566406 4.08984375 53.90234375 C5.00628662 53.89710693 5.92272949 53.89187012 6.86694336 53.88647461 C9 54 9 54 10 55 C9.92294221 72.43432574 9.92294221 72.43432574 6 80 C5.68417969 80.62132812 5.36835938 81.24265625 5.04296875 81.8828125 C1.74149616 87.45915136 -2.94532225 89.24035928 -9 91 C-17.83420965 93.00170914 -27.25912632 92.53204388 -35.15234375 87.67578125 C-41.25216968 82.76239081 -43.65837517 76.60677233 -45 69 C-45.30023104 64.99155655 -45.32770685 60.99509587 -45.3359375 56.9765625 C-45.3425943 55.83520844 -45.3492511 54.69385437 -45.35610962 53.51791382 C-45.36619817 51.11254479 -45.37092782 48.70714798 -45.37060547 46.30175781 C-45.374978 42.64340652 -45.41133862 38.98626325 -45.44921875 35.328125 C-45.45508798 32.98177492 -45.45905666 30.63541916 -45.4609375 28.2890625 C-45.47530853 27.20646149 -45.48967957 26.12386047 -45.50448608 25.00845337 C-45.45936087 17.42172987 -44.47729498 10.03278083 -39.35287476 4.0897522 C-28.64427448 -6.11362348 -12.76496668 -5.83030921 0 0 Z M-22 16 C-23.33966842 19.63745413 -23.13294781 23.35268225 -23.125 27.1875 C-23.12757813 28.43917969 -23.13015625 29.69085938 -23.1328125 30.98046875 C-23.345842 33.87927536 -23.345842 33.87927536 -22 35 C-20.48071962 35.07179964 -18.95832518 35.08392007 -17.4375 35.0625 C-16.19806641 35.04896484 -16.19806641 35.04896484 -14.93359375 35.03515625 C-14.29550781 35.02355469 -13.65742188 35.01195312 -13 35 C-12.94595551 32.24973583 -12.90630694 29.50053797 -12.875 26.75 C-12.85824219 25.97269531 -12.84148437 25.19539063 -12.82421875 24.39453125 C-12.74031699 18.91693064 -12.74031699 18.91693064 -15 14 C-18.95457848 13.65176193 -18.95457848 13.65176193 -22 16 Z " fill="#F76C3E" transform="translate(371,93)"/>
<path d="M0 0 C9.27734375 -0.09765625 9.27734375 -0.09765625 12 0 C13 1 13 1 13.11352539 4.23461914 C13.11327438 5.66814125 13.10771608 7.10166942 13.09765625 8.53515625 C13.09664917 9.20252808 13.09564209 9.8698999 13.09460449 10.55749512 C13.08935808 13.0591808 13.07539691 15.56084206 13.0625 18.0625 C13.041875 23.651875 13.02125 29.24125 13 35 C1.78 35 -9.44 35 -21 35 C-21 30.71 -21 26.42 -21 22 C-14.07 22 -7.14 22 0 22 C0 14.74 0 7.48 0 0 Z " fill="#F66C3F" transform="translate(401,180)"/>
<path d="M0 0 C3.96 0 7.92 0 12 0 C13 1 13 1 13.11352539 3.04125977 C13.10828857 3.91580811 13.10305176 4.79035645 13.09765625 5.69140625 C13.09515869 6.54162354 13.09266113 7.39184082 13.09008789 8.26782227 C13.07643188 9.89868774 13.07643188 9.89868774 13.0625 11.5625 C13.041875 15.006875 13.02125 18.45125 13 22 C19.93 22 26.86 22 34 22 C34 26.29 34 30.58 34 35 C22.78 35 11.56 35 0 35 C0 23.45 0 11.9 0 0 Z " fill="#F76E42" transform="translate(86,180)"/>
<path d="M0 0 C11.22 0 22.44 0 34 0 C34 4.29 34 8.58 34 13 C27.07 13 20.14 13 13 13 C13 19.93 13 26.86 13 34 C6.565 34.495 6.565 34.495 0 35 C0 23.45 0 11.9 0 0 Z " fill="#F7693E" transform="translate(81,60)"/>
<path d="M0 0 C11.22 0 22.44 0 34 0 C34 11.22 34 22.44 34 34 C29.71 34 25.42 34 21 34 C21 27.07 21 20.14 21 13 C14.07 13 7.14 13 0 13 C0 8.71 0 4.42 0 0 Z " fill="#F66C40" transform="translate(380,60)"/>
<path d="M0 0 C1.2065625 0.0309375 1.2065625 0.0309375 2.4375 0.0625 C2.7675 0.7225 3.0975 1.3825 3.4375 2.0625 C2.65375 2.000625 1.87 1.93875 1.0625 1.875 C-0.236875 1.9678125 -0.236875 1.9678125 -1.5625 2.0625 C-3.73859452 5.32664177 -3.81453709 6.25925332 -3.82128906 10.03710938 C-3.82759338 11.04825806 -3.83389771 12.05940674 -3.84039307 13.10119629 C-3.8363446 14.19186401 -3.83229614 15.28253174 -3.828125 16.40625 C-3.83003845 17.52688843 -3.8319519 18.64752686 -3.83392334 19.80212402 C-3.83528498 22.1726097 -3.83159005 24.54310285 -3.82324219 26.91357422 C-3.81254262 30.54802148 -3.82313847 34.18197442 -3.8359375 37.81640625 C-3.8346159 40.11718859 -3.8320535 42.41797063 -3.828125 44.71875 C-3.83217346 45.80941772 -3.83622192 46.90008545 -3.84039307 48.02380371 C-3.83408875 49.03495239 -3.82778442 50.04610107 -3.82128906 51.08789062 C-3.81969788 51.9781897 -3.81810669 52.86848877 -3.81646729 53.7857666 C-3.70767018 56.34203668 -3.70767018 56.34203668 -1.5625 59.0625 C0.9125 58.5675 0.9125 58.5675 3.4375 58.0625 C3.7675 57.0725 4.0975 56.0825 4.4375 55.0625 C5.0975 55.0625 5.7575 55.0625 6.4375 55.0625 C5.36348892 57.97767292 4.65939824 59.84060176 2.4375 62.0625 C-0.5 62.125 -0.5 62.125 -3.5625 61.0625 C-6.97558581 55.16735179 -7.00167093 49.74976391 -6.9609375 43.0546875 C-6.96380768 42.01104034 -6.96667786 40.96739319 -6.96963501 39.89212036 C-6.97166906 37.69516454 -6.96618554 35.49819033 -6.95361328 33.30126953 C-6.9375183 29.94132058 -6.95350166 26.58256859 -6.97265625 23.22265625 C-6.97067434 21.08333069 -6.96683174 18.94400586 -6.9609375 16.8046875 C-6.96701019 15.8025119 -6.97308289 14.8003363 -6.9793396 13.76779175 C-6.84222513 0.16688354 -6.84222513 0.16688354 0 0 Z " fill="#F65D2B" transform="translate(297.5625,105.9375)"/>
<path d="M0 0 C6.93 0 13.86 0 21 0 C21.495 5.94 21.495 5.94 22 12 C10.78 12 -0.44 12 -12 12 C-11.67 11.34 -11.34 10.68 -11 10 C-0.77 10 9.46 10 20 10 C20 7.03 20 4.06 20 1 C13.4 1 6.8 1 0 1 C0 0.67 0 0.34 0 0 Z " fill="#F66231" transform="translate(98,203)"/>
<path d="M0 0 C7.53258951 2.1185408 12.60702804 7.9492134 16.5 14.4375 C17.34773783 15.95035129 18.18647574 17.46847894 19 19 C18.34 19.66 17.68 20.32 17 21 C16.48953125 20.03900391 16.48953125 20.03900391 15.96875 19.05859375 C11.8017952 11.6223526 7.06416633 6.70944422 0 2 C0 1.34 0 0.68 0 0 Z " fill="#F76334" transform="translate(246,79)"/>
<path d="M0 0 C0.66 0 1.32 0 2 0 C2.495 1.093125 2.99 2.18625 3.5 3.3125 C6.04406118 7.8660008 9.11899946 8.61704985 14 10 C14 10.66 14 11.32 14 12 C10.55378697 11.93107574 7.94185984 11.79182907 5.234375 9.515625 C2.53079726 6.44457067 0.7736953 4.07539499 0 0 Z " fill="#F75F31" transform="translate(272,172)"/>
<path d="M0 0 C0.66 0 1.32 0 2 0 C0.50120132 3.11288957 -1.21167379 6.04537409 -3 9 C-3.33 9.66 -3.66 10.32 -4 11 C-4.66 11 -5.32 11 -6 11 C-4.74809374 6.51400257 -3.20614467 3.40652872 0 0 Z " fill="#F8622F" transform="translate(205,105)"/>
<path d="M0 0 C0.66 0.33 1.32 0.66 2 1 C1.21654285 2.17219543 0.42297164 3.33763668 -0.375 4.5 C-0.81585938 5.1496875 -1.25671875 5.799375 -1.7109375 6.46875 C-2.13632812 6.9740625 -2.56171875 7.479375 -3 8 C-3.66 8 -4.32 8 -5 8 C-3.62845496 5.04590299 -2.01136276 2.55991624 0 0 Z " fill="#F75D2E" transform="translate(375,172)"/>
</svg>
